STARTFONT 2.1
FONT --amstrad-Regular-R-Normal--8-80-72-72-C-80-FONTSPECIFIC-0
SIZE 8 72 72
FONTBOUNDINGBOX 8 8 0 0
STARTPROPERTIES 17
FONT_ASCENT 8
PIXEL_SIZE 8
RESOLUTION_X 72
RESOLUTION_Y 72
POINT_SIZE 80
FACE_NAME "amstrad Regular 8"
FONT_VERSION "0"
FAMILY_NAME "amstrad"
WEIGHT_NAME "Regular"
RELATIVE_WEIGHT 50
SLANT "R"
SPACING "C"
SETWIDTH_NAME "Normal"
RELATIVE_SETWIDTH 50
AVERAGE_WIDTH 80
CHARSET_REGISTRY "FONTSPECIFIC"
CHARSET_ENCODING "0"
ENDPROPERTIES
CHARS 256
STARTCHAR char00
ENCODING 0
SWIDTH 1000 0
DWIDTH 8 0
BBX 8 8 0 0
BITMAP 
00
00
00
00
00
00
00
00
ENDCHAR
STARTCHAR char01
ENCODING 1
SWIDTH 1000 0
DWIDTH 8 0
BBX 8 8 0 0
BITMAP 
08
0C
FA
81
81
FA
0C
08
ENDCHAR
STARTCHAR char02
ENCODING 2
SWIDTH 1000 0
DWIDTH 8 0
BBX 8 8 0 0
BITMAP 
10
30
5F
81
81
5F
30
10
ENDCHAR
STARTCHAR char03
ENCODING 3
SWIDTH 1000 0
DWIDTH 8 0
BBX 8 8 0 0
BITMAP 
18
24
42
E7
24
24
24
3C
ENDCHAR
STARTCHAR char04
ENCODING 4
SWIDTH 1000 0
DWIDTH 8 0
BBX 8 8 0 0
BITMAP 
3C
24
24
24
E7
42
24
18
ENDCHAR
STARTCHAR char05
ENCODING 5
SWIDTH 1000 0
DWIDTH 8 0
BBX 8 8 0 0
BITMAP 
3C
99
C3
E7
E7
C3
99
3C
ENDCHAR
STARTCHAR char06
ENCODING 6
SWIDTH 1000 0
DWIDTH 8 0
BBX 8 8 0 0
BITMAP 
E7
C3
99
3C
3C
99
C3
E7
ENDCHAR
STARTCHAR char07
ENCODING 7
SWIDTH 1000 0
DWIDTH 8 0
BBX 8 8 0 0
BITMAP 
FF
FF
FF
FE
FC
F9
F3
E7
ENDCHAR
STARTCHAR char08
ENCODING 8
SWIDTH 1000 0
DWIDTH 8 0
BBX 8 8 0 0
BITMAP 
00
03
06
CC
78
30
00
00
ENDCHAR
STARTCHAR char09
ENCODING 9
SWIDTH 1000 0
DWIDTH 8 0
BBX 8 8 0 0
BITMAP 
FF
C3
A5
99
99
A5
C3
FF
ENDCHAR
STARTCHAR char0A
ENCODING 10
SWIDTH 1000 0
DWIDTH 8 0
BBX 8 8 0 0
BITMAP 
FF
81
81
81
81
81
81
FF
ENDCHAR
STARTCHAR char0B
ENCODING 11
SWIDTH 1000 0
DWIDTH 8 0
BBX 8 8 0 0
BITMAP 
08
0C
0E
0C
3C
7C
7C
38
ENDCHAR
STARTCHAR char0C
ENCODING 12
SWIDTH 1000 0
DWIDTH 8 0
BBX 8 8 0 0
BITMAP 
18
3C
3C
3C
7E
10
38
10
ENDCHAR
STARTCHAR char0D
ENCODING 13
SWIDTH 1000 0
DWIDTH 8 0
BBX 8 8 0 0
BITMAP 
7C
92
92
9E
82
82
7C
00
ENDCHAR
STARTCHAR char0E
ENCODING 14
SWIDTH 1000 0
DWIDTH 8 0
BBX 8 8 0 0
BITMAP 
08
1D
3B
77
3B
1D
08
00
ENDCHAR
STARTCHAR char0F
ENCODING 15
SWIDTH 1000 0
DWIDTH 8 0
BBX 8 8 0 0
BITMAP 
88
DC
BE
7F
BE
DC
88
00
ENDCHAR
STARTCHAR char10
ENCODING 16
SWIDTH 1000 0
DWIDTH 8 0
BBX 8 8 0 0
BITMAP 
7C
C6
C6
00
C6
C6
7C
00
ENDCHAR
STARTCHAR char11
ENCODING 17
SWIDTH 1000 0
DWIDTH 8 0
BBX 8 8 0 0
BITMAP 
18
18
18
00
18
18
18
00
ENDCHAR
STARTCHAR char12
ENCODING 18
SWIDTH 1000 0
DWIDTH 8 0
BBX 8 8 0 0
BITMAP 
7C
06
06
7C
C0
C0
7C
00
ENDCHAR
STARTCHAR char13
ENCODING 19
SWIDTH 1000 0
DWIDTH 8 0
BBX 8 8 0 0
BITMAP 
7C
06
06
7C
06
06
7C
00
ENDCHAR
STARTCHAR char14
ENCODING 20
SWIDTH 1000 0
DWIDTH 8 0
BBX 8 8 0 0
BITMAP 
C6
C6
C6
7C
06
06
06
00
ENDCHAR
STARTCHAR char15
ENCODING 21
SWIDTH 1000 0
DWIDTH 8 0
BBX 8 8 0 0
BITMAP 
7C
C0
C0
7C
06
06
7C
00
ENDCHAR
STARTCHAR char16
ENCODING 22
SWIDTH 1000 0
DWIDTH 8 0
BBX 8 8 0 0
BITMAP 
7C
C0
C0
7C
C6
C6
7C
00
ENDCHAR
STARTCHAR char17
ENCODING 23
SWIDTH 1000 0
DWIDTH 8 0
BBX 8 8 0 0
BITMAP 
7C
06
06
00
06
06
06
00
ENDCHAR
STARTCHAR char18
ENCODING 24
SWIDTH 1000 0
DWIDTH 8 0
BBX 8 8 0 0
BITMAP 
7C
C6
C6
7C
C6
C6
7C
00
ENDCHAR
STARTCHAR char19
ENCODING 25
SWIDTH 1000 0
DWIDTH 8 0
BBX 8 8 0 0
BITMAP 
7C
C6
C6
7C
06
06
7C
00
ENDCHAR
STARTCHAR char1A
ENCODING 26
SWIDTH 1000 0
DWIDTH 8 0
BBX 8 8 0 0
BITMAP 
7C
C6
C6
7C
C6
C6
C6
00
ENDCHAR
STARTCHAR char1B
ENCODING 27
SWIDTH 1000 0
DWIDTH 8 0
BBX 8 8 0 0
BITMAP 
C0
C0
C0
7C
C6
C6
7C
00
ENDCHAR
STARTCHAR char1C
ENCODING 28
SWIDTH 1000 0
DWIDTH 8 0
BBX 8 8 0 0
BITMAP 
7C
C0
C0
00
C0
C0
7C
00
ENDCHAR
STARTCHAR char1D
ENCODING 29
SWIDTH 1000 0
DWIDTH 8 0
BBX 8 8 0 0
BITMAP 
06
06
06
7C
C6
C6
7C
00
ENDCHAR
STARTCHAR char1E
ENCODING 30
SWIDTH 1000 0
DWIDTH 8 0
BBX 8 8 0 0
BITMAP 
7C
C0
C0
7C
C0
C0
7C
00
ENDCHAR
STARTCHAR char1F
ENCODING 31
SWIDTH 1000 0
DWIDTH 8 0
BBX 8 8 0 0
BITMAP 
7C
C0
C0
7C
C0
C0
C0
00
ENDCHAR
STARTCHAR char20
ENCODING 32
SWIDTH 1000 0
DWIDTH 8 0
BBX 8 8 0 0
BITMAP 
00
00
00
00
00
00
00
00
ENDCHAR
STARTCHAR char21
ENCODING 33
SWIDTH 1000 0
DWIDTH 8 0
BBX 8 8 0 0
BITMAP 
18
18
18
18
18
00
18
00
ENDCHAR
STARTCHAR char22
ENCODING 34
SWIDTH 1000 0
DWIDTH 8 0
BBX 8 8 0 0
BITMAP 
66
66
66
00
00
00
00
00
ENDCHAR
STARTCHAR char23
ENCODING 35
SWIDTH 1000 0
DWIDTH 8 0
BBX 8 8 0 0
BITMAP 
00
6C
FE
6C
6C
FE
6C
00
ENDCHAR
STARTCHAR char24
ENCODING 36
SWIDTH 1000 0
DWIDTH 8 0
BBX 8 8 0 0
BITMAP 
10
7C
D0
7C
16
7C
10
00
ENDCHAR
STARTCHAR char25
ENCODING 37
SWIDTH 1000 0
DWIDTH 8 0
BBX 8 8 0 0
BITMAP 
00
66
6C
18
30
66
46
00
ENDCHAR
STARTCHAR char26
ENCODING 38
SWIDTH 1000 0
DWIDTH 8 0
BBX 8 8 0 0
BITMAP 
38
6C
38
70
DE
CC
76
00
ENDCHAR
STARTCHAR char27
ENCODING 39
SWIDTH 1000 0
DWIDTH 8 0
BBX 8 8 0 0
BITMAP 
18
18
30
00
00
00
00
00
ENDCHAR
STARTCHAR char28
ENCODING 40
SWIDTH 1000 0
DWIDTH 8 0
BBX 8 8 0 0
BITMAP 
0C
18
30
30
30
18
0C
00
ENDCHAR
STARTCHAR char29
ENCODING 41
SWIDTH 1000 0
DWIDTH 8 0
BBX 8 8 0 0
BITMAP 
30
18
0C
0C
0C
18
30
00
ENDCHAR
STARTCHAR char2A
ENCODING 42
SWIDTH 1000 0
DWIDTH 8 0
BBX 8 8 0 0
BITMAP 
00
66
3C
FF
3C
66
00
00
ENDCHAR
STARTCHAR char2B
ENCODING 43
SWIDTH 1000 0
DWIDTH 8 0
BBX 8 8 0 0
BITMAP 
00
18
18
7E
18
18
00
00
ENDCHAR
STARTCHAR char2C
ENCODING 44
SWIDTH 1000 0
DWIDTH 8 0
BBX 8 8 0 0
BITMAP 
00
00
00
00
00
18
18
30
ENDCHAR
STARTCHAR char2D
ENCODING 45
SWIDTH 1000 0
DWIDTH 8 0
BBX 8 8 0 0
BITMAP 
00
00
00
7E
00
00
00
00
ENDCHAR
STARTCHAR char2E
ENCODING 46
SWIDTH 1000 0
DWIDTH 8 0
BBX 8 8 0 0
BITMAP 
00
00
00
00
00
18
18
00
ENDCHAR
STARTCHAR char2F
ENCODING 47
SWIDTH 1000 0
DWIDTH 8 0
BBX 8 8 0 0
BITMAP 
02
06
0C
18
30
60
40
00
ENDCHAR
STARTCHAR char30
ENCODING 48
SWIDTH 1000 0
DWIDTH 8 0
BBX 8 8 0 0
BITMAP 
3C
66
6E
76
66
66
3C
00
ENDCHAR
STARTCHAR char31
ENCODING 49
SWIDTH 1000 0
DWIDTH 8 0
BBX 8 8 0 0
BITMAP 
18
38
18
18
18
18
3C
00
ENDCHAR
STARTCHAR char32
ENCODING 50
SWIDTH 1000 0
DWIDTH 8 0
BBX 8 8 0 0
BITMAP 
3C
66
06
0C
18
30
7E
00
ENDCHAR
STARTCHAR char33
ENCODING 51
SWIDTH 1000 0
DWIDTH 8 0
BBX 8 8 0 0
BITMAP 
7E
0C
18
0C
06
66
3C
00
ENDCHAR
STARTCHAR char34
ENCODING 52
SWIDTH 1000 0
DWIDTH 8 0
BBX 8 8 0 0
BITMAP 
0C
1C
3C
6C
7E
0C
0C
00
ENDCHAR
STARTCHAR char35
ENCODING 53
SWIDTH 1000 0
DWIDTH 8 0
BBX 8 8 0 0
BITMAP 
7E
60
7C
06
06
66
3C
00
ENDCHAR
STARTCHAR char36
ENCODING 54
SWIDTH 1000 0
DWIDTH 8 0
BBX 8 8 0 0
BITMAP 
3C
60
60
7C
66
66
3C
00
ENDCHAR
STARTCHAR char37
ENCODING 55
SWIDTH 1000 0
DWIDTH 8 0
BBX 8 8 0 0
BITMAP 
7E
06
0C
18
30
30
30
00
ENDCHAR
STARTCHAR char38
ENCODING 56
SWIDTH 1000 0
DWIDTH 8 0
BBX 8 8 0 0
BITMAP 
3C
66
66
3C
66
66
3C
00
ENDCHAR
STARTCHAR char39
ENCODING 57
SWIDTH 1000 0
DWIDTH 8 0
BBX 8 8 0 0
BITMAP 
3C
66
66
3E
06
06
3C
00
ENDCHAR
STARTCHAR char3A
ENCODING 58
SWIDTH 1000 0
DWIDTH 8 0
BBX 8 8 0 0
BITMAP 
00
00
18
18
00
18
18
00
ENDCHAR
STARTCHAR char3B
ENCODING 59
SWIDTH 1000 0
DWIDTH 8 0
BBX 8 8 0 0
BITMAP 
00
00
18
18
00
18
18
30
ENDCHAR
STARTCHAR char3C
ENCODING 60
SWIDTH 1000 0
DWIDTH 8 0
BBX 8 8 0 0
BITMAP 
0C
18
30
60
30
18
0C
00
ENDCHAR
STARTCHAR char3D
ENCODING 61
SWIDTH 1000 0
DWIDTH 8 0
BBX 8 8 0 0
BITMAP 
00
00
7E
00
00
7E
00
00
ENDCHAR
STARTCHAR char3E
ENCODING 62
SWIDTH 1000 0
DWIDTH 8 0
BBX 8 8 0 0
BITMAP 
60
30
18
0C
18
30
60
00
ENDCHAR
STARTCHAR char3F
ENCODING 63
SWIDTH 1000 0
DWIDTH 8 0
BBX 8 8 0 0
BITMAP 
3C
66
66
0C
18
00
18
00
ENDCHAR
STARTCHAR char40
ENCODING 64
SWIDTH 1000 0
DWIDTH 8 0
BBX 8 8 0 0
BITMAP 
3C
66
6E
6A
6E
60
3C
00
ENDCHAR
STARTCHAR char41
ENCODING 65
SWIDTH 1000 0
DWIDTH 8 0
BBX 8 8 0 0
BITMAP 
18
3C
66
66
7E
66
66
00
ENDCHAR
STARTCHAR char42
ENCODING 66
SWIDTH 1000 0
DWIDTH 8 0
BBX 8 8 0 0
BITMAP 
7C
66
66
7C
66
66
7C
00
ENDCHAR
STARTCHAR char43
ENCODING 67
SWIDTH 1000 0
DWIDTH 8 0
BBX 8 8 0 0
BITMAP 
3C
66
60
60
60
66
3C
00
ENDCHAR
STARTCHAR char44
ENCODING 68
SWIDTH 1000 0
DWIDTH 8 0
BBX 8 8 0 0
BITMAP 
78
6C
66
66
66
6C
78
00
ENDCHAR
STARTCHAR char45
ENCODING 69
SWIDTH 1000 0
DWIDTH 8 0
BBX 8 8 0 0
BITMAP 
7E
60
60
7C
60
60
7E
00
ENDCHAR
STARTCHAR char46
ENCODING 70
SWIDTH 1000 0
DWIDTH 8 0
BBX 8 8 0 0
BITMAP 
7E
60
60
7C
60
60
60
00
ENDCHAR
STARTCHAR char47
ENCODING 71
SWIDTH 1000 0
DWIDTH 8 0
BBX 8 8 0 0
BITMAP 
3E
60
60
6E
66
66
3E
00
ENDCHAR
STARTCHAR char48
ENCODING 72
SWIDTH 1000 0
DWIDTH 8 0
BBX 8 8 0 0
BITMAP 
66
66
66
7E
66
66
66
00
ENDCHAR
STARTCHAR char49
ENCODING 73
SWIDTH 1000 0
DWIDTH 8 0
BBX 8 8 0 0
BITMAP 
3C
18
18
18
18
18
3C
00
ENDCHAR
STARTCHAR char4A
ENCODING 74
SWIDTH 1000 0
DWIDTH 8 0
BBX 8 8 0 0
BITMAP 
06
06
06
06
06
66
3C
00
ENDCHAR
STARTCHAR char4B
ENCODING 75
SWIDTH 1000 0
DWIDTH 8 0
BBX 8 8 0 0
BITMAP 
66
6C
78
70
78
6C
66
00
ENDCHAR
STARTCHAR char4C
ENCODING 76
SWIDTH 1000 0
DWIDTH 8 0
BBX 8 8 0 0
BITMAP 
60
60
60
60
60
60
7E
00
ENDCHAR
STARTCHAR char4D
ENCODING 77
SWIDTH 1000 0
DWIDTH 8 0
BBX 8 8 0 0
BITMAP 
C6
EE
FE
D6
C6
C6
C6
00
ENDCHAR
STARTCHAR char4E
ENCODING 78
SWIDTH 1000 0
DWIDTH 8 0
BBX 8 8 0 0
BITMAP 
66
76
7E
7E
6E
66
66
00
ENDCHAR
STARTCHAR char4F
ENCODING 79
SWIDTH 1000 0
DWIDTH 8 0
BBX 8 8 0 0
BITMAP 
3C
66
66
66
66
66
3C
00
ENDCHAR
STARTCHAR char50
ENCODING 80
SWIDTH 1000 0
DWIDTH 8 0
BBX 8 8 0 0
BITMAP 
7C
66
66
7C
60
60
60
00
ENDCHAR
STARTCHAR char51
ENCODING 81
SWIDTH 1000 0
DWIDTH 8 0
BBX 8 8 0 0
BITMAP 
3C
66
66
66
76
6C
36
00
ENDCHAR
STARTCHAR char52
ENCODING 82
SWIDTH 1000 0
DWIDTH 8 0
BBX 8 8 0 0
BITMAP 
7C
66
66
7C
6C
66
66
00
ENDCHAR
STARTCHAR char53
ENCODING 83
SWIDTH 1000 0
DWIDTH 8 0
BBX 8 8 0 0
BITMAP 
3C
66
60
3C
06
66
3C
00
ENDCHAR
STARTCHAR char54
ENCODING 84
SWIDTH 1000 0
DWIDTH 8 0
BBX 8 8 0 0
BITMAP 
7E
18
18
18
18
18
18
00
ENDCHAR
STARTCHAR char55
ENCODING 85
SWIDTH 1000 0
DWIDTH 8 0
BBX 8 8 0 0
BITMAP 
66
66
66
66
66
66
3C
00
ENDCHAR
STARTCHAR char56
ENCODING 86
SWIDTH 1000 0
DWIDTH 8 0
BBX 8 8 0 0
BITMAP 
66
66
66
66
66
3C
18
00
ENDCHAR
STARTCHAR char57
ENCODING 87
SWIDTH 1000 0
DWIDTH 8 0
BBX 8 8 0 0
BITMAP 
C6
C6
C6
D6
FE
EE
C6
00
ENDCHAR
STARTCHAR char58
ENCODING 88
SWIDTH 1000 0
DWIDTH 8 0
BBX 8 8 0 0
BITMAP 
66
66
3C
18
3C
66
66
00
ENDCHAR
STARTCHAR char59
ENCODING 89
SWIDTH 1000 0
DWIDTH 8 0
BBX 8 8 0 0
BITMAP 
66
66
66
3C
18
18
18
00
ENDCHAR
STARTCHAR char5A
ENCODING 90
SWIDTH 1000 0
DWIDTH 8 0
BBX 8 8 0 0
BITMAP 
7E
06
0C
18
30
60
7E
00
ENDCHAR
STARTCHAR char5B
ENCODING 91
SWIDTH 1000 0
DWIDTH 8 0
BBX 8 8 0 0
BITMAP 
3C
30
30
30
30
30
3C
00
ENDCHAR
STARTCHAR char5C
ENCODING 92
SWIDTH 1000 0
DWIDTH 8 0
BBX 8 8 0 0
BITMAP 
40
60
30
18
0C
06
02
00
ENDCHAR
STARTCHAR char5D
ENCODING 93
SWIDTH 1000 0
DWIDTH 8 0
BBX 8 8 0 0
BITMAP 
3C
0C
0C
0C
0C
0C
3C
00
ENDCHAR
STARTCHAR char5E
ENCODING 94
SWIDTH 1000 0
DWIDTH 8 0
BBX 8 8 0 0
BITMAP 
18
3C
66
00
00
00
00
00
ENDCHAR
STARTCHAR char5F
ENCODING 95
SWIDTH 1000 0
DWIDTH 8 0
BBX 8 8 0 0
BITMAP 
00
00
00
00
00
00
00
FE
ENDCHAR
STARTCHAR char60
ENCODING 96
SWIDTH 1000 0
DWIDTH 8 0
BBX 8 8 0 0
BITMAP 
30
18
0C
00
00
00
00
00
ENDCHAR
STARTCHAR char61
ENCODING 97
SWIDTH 1000 0
DWIDTH 8 0
BBX 8 8 0 0
BITMAP 
00
00
3C
06
3E
66
3E
00
ENDCHAR
STARTCHAR char62
ENCODING 98
SWIDTH 1000 0
DWIDTH 8 0
BBX 8 8 0 0
BITMAP 
60
60
7C
66
66
66
7C
00
ENDCHAR
STARTCHAR char63
ENCODING 99
SWIDTH 1000 0
DWIDTH 8 0
BBX 8 8 0 0
BITMAP 
00
00
3C
60
60
60
3C
00
ENDCHAR
STARTCHAR char64
ENCODING 100
SWIDTH 1000 0
DWIDTH 8 0
BBX 8 8 0 0
BITMAP 
06
06
3E
66
66
66
3E
00
ENDCHAR
STARTCHAR char65
ENCODING 101
SWIDTH 1000 0
DWIDTH 8 0
BBX 8 8 0 0
BITMAP 
00
00
3C
66
7E
60
3C
00
ENDCHAR
STARTCHAR char66
ENCODING 102
SWIDTH 1000 0
DWIDTH 8 0
BBX 8 8 0 0
BITMAP 
1C
30
30
7C
30
30
30
00
ENDCHAR
STARTCHAR char67
ENCODING 103
SWIDTH 1000 0
DWIDTH 8 0
BBX 8 8 0 0
BITMAP 
00
00
3E
66
66
3E
06
7C
ENDCHAR
STARTCHAR char68
ENCODING 104
SWIDTH 1000 0
DWIDTH 8 0
BBX 8 8 0 0
BITMAP 
60
60
7C
66
66
66
66
00
ENDCHAR
STARTCHAR char69
ENCODING 105
SWIDTH 1000 0
DWIDTH 8 0
BBX 8 8 0 0
BITMAP 
18
00
38
18
18
18
3C
00
ENDCHAR
STARTCHAR char6A
ENCODING 106
SWIDTH 1000 0
DWIDTH 8 0
BBX 8 8 0 0
BITMAP 
18
00
18
18
18
18
18
70
ENDCHAR
STARTCHAR char6B
ENCODING 107
SWIDTH 1000 0
DWIDTH 8 0
BBX 8 8 0 0
BITMAP 
60
60
66
6C
78
6C
66
00
ENDCHAR
STARTCHAR char6C
ENCODING 108
SWIDTH 1000 0
DWIDTH 8 0
BBX 8 8 0 0
BITMAP 
38
18
18
18
18
18
3C
00
ENDCHAR
STARTCHAR char6D
ENCODING 109
SWIDTH 1000 0
DWIDTH 8 0
BBX 8 8 0 0
BITMAP 
00
00
EC
FE
D6
D6
D6
00
ENDCHAR
STARTCHAR char6E
ENCODING 110
SWIDTH 1000 0
DWIDTH 8 0
BBX 8 8 0 0
BITMAP 
00
00
DC
66
66
66
66
00
ENDCHAR
STARTCHAR char6F
ENCODING 111
SWIDTH 1000 0
DWIDTH 8 0
BBX 8 8 0 0
BITMAP 
00
00
3C
66
66
66
3C
00
ENDCHAR
STARTCHAR char70
ENCODING 112
SWIDTH 1000 0
DWIDTH 8 0
BBX 8 8 0 0
BITMAP 
00
00
7C
66
66
7C
60
60
ENDCHAR
STARTCHAR char71
ENCODING 113
SWIDTH 1000 0
DWIDTH 8 0
BBX 8 8 0 0
BITMAP 
00
00
3E
66
66
3E
06
06
ENDCHAR
STARTCHAR char72
ENCODING 114
SWIDTH 1000 0
DWIDTH 8 0
BBX 8 8 0 0
BITMAP 
00
00
6C
76
60
60
60
00
ENDCHAR
STARTCHAR char73
ENCODING 115
SWIDTH 1000 0
DWIDTH 8 0
BBX 8 8 0 0
BITMAP 
00
00
3E
60
3C
06
7C
00
ENDCHAR
STARTCHAR char74
ENCODING 116
SWIDTH 1000 0
DWIDTH 8 0
BBX 8 8 0 0
BITMAP 
18
18
7E
18
18
18
0E
00
ENDCHAR
STARTCHAR char75
ENCODING 117
SWIDTH 1000 0
DWIDTH 8 0
BBX 8 8 0 0
BITMAP 
00
00
66
66
66
66
3E
00
ENDCHAR
STARTCHAR char76
ENCODING 118
SWIDTH 1000 0
DWIDTH 8 0
BBX 8 8 0 0
BITMAP 
00
00
66
66
66
3C
18
00
ENDCHAR
STARTCHAR char77
ENCODING 119
SWIDTH 1000 0
DWIDTH 8 0
BBX 8 8 0 0
BITMAP 
00
00
C6
C6
D6
FE
6C
00
ENDCHAR
STARTCHAR char78
ENCODING 120
SWIDTH 1000 0
DWIDTH 8 0
BBX 8 8 0 0
BITMAP 
00
00
66
3C
18
3C
66
00
ENDCHAR
STARTCHAR char79
ENCODING 121
SWIDTH 1000 0
DWIDTH 8 0
BBX 8 8 0 0
BITMAP 
00
00
66
66
66
3E
06
7C
ENDCHAR
STARTCHAR char7A
ENCODING 122
SWIDTH 1000 0
DWIDTH 8 0
BBX 8 8 0 0
BITMAP 
00
00
7E
0C
18
30
7E
00
ENDCHAR
STARTCHAR char7B
ENCODING 123
SWIDTH 1000 0
DWIDTH 8 0
BBX 8 8 0 0
BITMAP 
06
0C
0C
18
0C
0C
06
00
ENDCHAR
STARTCHAR char7C
ENCODING 124
SWIDTH 1000 0
DWIDTH 8 0
BBX 8 8 0 0
BITMAP 
18
18
18
00
18
18
18
00
ENDCHAR
STARTCHAR char7D
ENCODING 125
SWIDTH 1000 0
DWIDTH 8 0
BBX 8 8 0 0
BITMAP 
60
30
30
18
30
30
60
00
ENDCHAR
STARTCHAR char7E
ENCODING 126
SWIDTH 1000 0
DWIDTH 8 0
BBX 8 8 0 0
BITMAP 
76
DC
00
00
00
00
00
00
ENDCHAR
STARTCHAR char7F
ENCODING 127
SWIDTH 1000 0
DWIDTH 8 0
BBX 8 8 0 0
BITMAP 
1C
36
30
78
30
36
7E
00
ENDCHAR
STARTCHAR char80
ENCODING 128
SWIDTH 1000 0
DWIDTH 8 0
BBX 8 8 0 0
BITMAP 
AA
00
00
AA
00
00
AA
00
ENDCHAR
STARTCHAR char81
ENCODING 129
SWIDTH 1000 0
DWIDTH 8 0
BBX 8 8 0 0
BITMAP 
AA
00
55
00
AA
00
55
00
ENDCHAR
STARTCHAR char82
ENCODING 130
SWIDTH 1000 0
DWIDTH 8 0
BBX 8 8 0 0
BITMAP 
AA
55
AA
55
AA
55
AA
55
ENDCHAR
STARTCHAR char83
ENCODING 131
SWIDTH 1000 0
DWIDTH 8 0
BBX 8 8 0 0
BITMAP 
18
18
18
18
18
18
18
18
ENDCHAR
STARTCHAR char84
ENCODING 132
SWIDTH 1000 0
DWIDTH 8 0
BBX 8 8 0 0
BITMAP 
18
18
18
F8
18
18
18
18
ENDCHAR
STARTCHAR char85
ENCODING 133
SWIDTH 1000 0
DWIDTH 8 0
BBX 8 8 0 0
BITMAP 
18
18
18
F8
18
F8
18
18
ENDCHAR
STARTCHAR char86
ENCODING 134
SWIDTH 1000 0
DWIDTH 8 0
BBX 8 8 0 0
BITMAP 
6C
6C
6C
EC
6C
6C
6C
6C
ENDCHAR
STARTCHAR char87
ENCODING 135
SWIDTH 1000 0
DWIDTH 8 0
BBX 8 8 0 0
BITMAP 
00
00
00
FE
36
36
36
36
ENDCHAR
STARTCHAR char88
ENCODING 136
SWIDTH 1000 0
DWIDTH 8 0
BBX 8 8 0 0
BITMAP 
00
00
00
F8
18
F8
18
18
ENDCHAR
STARTCHAR char89
ENCODING 137
SWIDTH 1000 0
DWIDTH 8 0
BBX 8 8 0 0
BITMAP 
6C
6C
6C
EC
0C
EC
6C
6C
ENDCHAR
STARTCHAR char8A
ENCODING 138
SWIDTH 1000 0
DWIDTH 8 0
BBX 8 8 0 0
BITMAP 
6C
6C
6C
6C
6C
6C
6C
6C
ENDCHAR
STARTCHAR char8B
ENCODING 139
SWIDTH 1000 0
DWIDTH 8 0
BBX 8 8 0 0
BITMAP 
00
00
00
FC
0C
EC
6C
6C
ENDCHAR
STARTCHAR char8C
ENCODING 140
SWIDTH 1000 0
DWIDTH 8 0
BBX 8 8 0 0
BITMAP 
6C
6C
6C
EC
0C
FC
00
00
ENDCHAR
STARTCHAR char8D
ENCODING 141
SWIDTH 1000 0
DWIDTH 8 0
BBX 8 8 0 0
BITMAP 
6C
6C
6C
FC
00
00
00
00
ENDCHAR
STARTCHAR char8E
ENCODING 142
SWIDTH 1000 0
DWIDTH 8 0
BBX 8 8 0 0
BITMAP 
18
18
18
F8
18
F8
00
00
ENDCHAR
STARTCHAR char8F
ENCODING 143
SWIDTH 1000 0
DWIDTH 8 0
BBX 8 8 0 0
BITMAP 
00
00
00
F8
18
18
18
18
ENDCHAR
STARTCHAR char90
ENCODING 144
SWIDTH 1000 0
DWIDTH 8 0
BBX 8 8 0 0
BITMAP 
18
18
18
1F
00
00
00
00
ENDCHAR
STARTCHAR char91
ENCODING 145
SWIDTH 1000 0
DWIDTH 8 0
BBX 8 8 0 0
BITMAP 
18
18
18
FF
00
00
00
00
ENDCHAR
STARTCHAR char92
ENCODING 146
SWIDTH 1000 0
DWIDTH 8 0
BBX 8 8 0 0
BITMAP 
00
00
00
FF
18
18
18
18
ENDCHAR
STARTCHAR char93
ENCODING 147
SWIDTH 1000 0
DWIDTH 8 0
BBX 8 8 0 0
BITMAP 
18
18
18
1F
18
18
18
18
ENDCHAR
STARTCHAR char94
ENCODING 148
SWIDTH 1000 0
DWIDTH 8 0
BBX 8 8 0 0
BITMAP 
00
00
00
FF
00
00
00
00
ENDCHAR
STARTCHAR char95
ENCODING 149
SWIDTH 1000 0
DWIDTH 8 0
BBX 8 8 0 0
BITMAP 
18
18
18
FF
18
18
18
18
ENDCHAR
STARTCHAR char96
ENCODING 150
SWIDTH 1000 0
DWIDTH 8 0
BBX 8 8 0 0
BITMAP 
18
18
18
1F
18
1F
18
18
ENDCHAR
STARTCHAR char97
ENCODING 151
SWIDTH 1000 0
DWIDTH 8 0
BBX 8 8 0 0
BITMAP 
6C
6C
6C
6F
6C
6C
6C
6C
ENDCHAR
STARTCHAR char98
ENCODING 152
SWIDTH 1000 0
DWIDTH 8 0
BBX 8 8 0 0
BITMAP 
6C
6C
6C
6F
60
7F
00
00
ENDCHAR
STARTCHAR char99
ENCODING 153
SWIDTH 1000 0
DWIDTH 8 0
BBX 8 8 0 0
BITMAP 
00
00
00
7F
60
6F
6C
6C
ENDCHAR
STARTCHAR char9A
ENCODING 154
SWIDTH 1000 0
DWIDTH 8 0
BBX 8 8 0 0
BITMAP 
6C
6C
6C
EF
00
FF
00
00
ENDCHAR
STARTCHAR char9B
ENCODING 155
SWIDTH 1000 0
DWIDTH 8 0
BBX 8 8 0 0
BITMAP 
00
00
00
FF
00
EF
6C
6C
ENDCHAR
STARTCHAR char9C
ENCODING 156
SWIDTH 1000 0
DWIDTH 8 0
BBX 8 8 0 0
BITMAP 
6C
6C
6C
6F
60
6F
6C
6C
ENDCHAR
STARTCHAR char9D
ENCODING 157
SWIDTH 1000 0
DWIDTH 8 0
BBX 8 8 0 0
BITMAP 
00
00
00
FF
00
FF
00
00
ENDCHAR
STARTCHAR char9E
ENCODING 158
SWIDTH 1000 0
DWIDTH 8 0
BBX 8 8 0 0
BITMAP 
6C
6C
6C
EF
00
EF
6C
6C
ENDCHAR
STARTCHAR char9F
ENCODING 159
SWIDTH 1000 0
DWIDTH 8 0
BBX 8 8 0 0
BITMAP 
18
18
18
FF
00
FF
00
00
ENDCHAR
STARTCHAR charA0
ENCODING 160
SWIDTH 1000 0
DWIDTH 8 0
BBX 8 8 0 0
BITMAP 
6C
6C
6C
FF
00
00
00
00
ENDCHAR
STARTCHAR charA1
ENCODING 161
SWIDTH 1000 0
DWIDTH 8 0
BBX 8 8 0 0
BITMAP 
00
00
00
FF
00
FF
18
18
ENDCHAR
STARTCHAR charA2
ENCODING 162
SWIDTH 1000 0
DWIDTH 8 0
BBX 8 8 0 0
BITMAP 
00
00
00
FF
6C
6C
6C
6C
ENDCHAR
STARTCHAR charA3
ENCODING 163
SWIDTH 1000 0
DWIDTH 8 0
BBX 8 8 0 0
BITMAP 
6C
6C
6C
7F
00
00
00
00
ENDCHAR
STARTCHAR charA4
ENCODING 164
SWIDTH 1000 0
DWIDTH 8 0
BBX 8 8 0 0
BITMAP 
18
18
18
1F
18
1F
00
00
ENDCHAR
STARTCHAR charA5
ENCODING 165
SWIDTH 1000 0
DWIDTH 8 0
BBX 8 8 0 0
BITMAP 
00
00
00
1F
18
1F
18
18
ENDCHAR
STARTCHAR charA6
ENCODING 166
SWIDTH 1000 0
DWIDTH 8 0
BBX 8 8 0 0
BITMAP 
00
00
00
7F
6C
6C
6C
6C
ENDCHAR
STARTCHAR charA7
ENCODING 167
SWIDTH 1000 0
DWIDTH 8 0
BBX 8 8 0 0
BITMAP 
6C
6C
6C
EF
6C
6C
6C
6C
ENDCHAR
STARTCHAR charA8
ENCODING 168
SWIDTH 1000 0
DWIDTH 8 0
BBX 8 8 0 0
BITMAP 
18
18
18
FF
00
FF
18
18
ENDCHAR
STARTCHAR charA9
ENCODING 169
SWIDTH 1000 0
DWIDTH 8 0
BBX 8 8 0 0
BITMAP 
18
18
18
F8
00
00
00
00
ENDCHAR
STARTCHAR charAA
ENCODING 170
SWIDTH 1000 0
DWIDTH 8 0
BBX 8 8 0 0
BITMAP 
00
00
00
1F
18
18
18
18
ENDCHAR
STARTCHAR charAB
ENCODING 171
SWIDTH 1000 0
DWIDTH 8 0
BBX 8 8 0 0
BITMAP 
FF
FF
FF
FF
FF
FF
FF
FF
ENDCHAR
STARTCHAR charAC
ENCODING 172
SWIDTH 1000 0
DWIDTH 8 0
BBX 8 8 0 0
BITMAP 
00
00
00
00
FF
FF
FF
FF
ENDCHAR
STARTCHAR charAD
ENCODING 173
SWIDTH 1000 0
DWIDTH 8 0
BBX 8 8 0 0
BITMAP 
F0
F0
F0
F0
F0
F0
F0
F0
ENDCHAR
STARTCHAR charAE
ENCODING 174
SWIDTH 1000 0
DWIDTH 8 0
BBX 8 8 0 0
BITMAP 
0F
0F
0F
0F
0F
0F
0F
0F
ENDCHAR
STARTCHAR charAF
ENCODING 175
SWIDTH 1000 0
DWIDTH 8 0
BBX 8 8 0 0
BITMAP 
FF
FF
FF
FF
00
00
00
00
ENDCHAR
STARTCHAR charB0
ENCODING 176
SWIDTH 1000 0
DWIDTH 8 0
BBX 8 8 0 0
BITMAP 
00
7E
00
7E
00
7E
00
00
ENDCHAR
STARTCHAR charB1
ENCODING 177
SWIDTH 1000 0
DWIDTH 8 0
BBX 8 8 0 0
BITMAP 
18
18
7E
18
18
00
7E
00
ENDCHAR
STARTCHAR charB2
ENCODING 178
SWIDTH 1000 0
DWIDTH 8 0
BBX 8 8 0 0
BITMAP 
60
38
0C
38
60
00
7C
00
ENDCHAR
STARTCHAR charB3
ENCODING 179
SWIDTH 1000 0
DWIDTH 8 0
BBX 8 8 0 0
BITMAP 
0C
38
60
38
0C
00
7C
00
ENDCHAR
STARTCHAR charB4
ENCODING 180
SWIDTH 1000 0
DWIDTH 8 0
BBX 8 8 0 0
BITMAP 
0E
1B
1B
18
18
18
18
18
ENDCHAR
STARTCHAR charB5
ENCODING 181
SWIDTH 1000 0
DWIDTH 8 0
BBX 8 8 0 0
BITMAP 
18
18
18
18
18
D8
D8
70
ENDCHAR
STARTCHAR charB6
ENCODING 182
SWIDTH 1000 0
DWIDTH 8 0
BBX 8 8 0 0
BITMAP 
18
18
00
7E
00
18
18
00
ENDCHAR
STARTCHAR charB7
ENCODING 183
SWIDTH 1000 0
DWIDTH 8 0
BBX 8 8 0 0
BITMAP 
00
32
4C
00
32
4C
00
00
ENDCHAR
STARTCHAR charB8
ENCODING 184
SWIDTH 1000 0
DWIDTH 8 0
BBX 8 8 0 0
BITMAP 
00
3C
66
66
66
3C
00
00
ENDCHAR
STARTCHAR charB9
ENCODING 185
SWIDTH 1000 0
DWIDTH 8 0
BBX 8 8 0 0
BITMAP 
00
00
18
24
24
18
00
00
ENDCHAR
STARTCHAR charBA
ENCODING 186
SWIDTH 1000 0
DWIDTH 8 0
BBX 8 8 0 0
BITMAP 
00
00
00
18
18
00
00
00
ENDCHAR
STARTCHAR charBB
ENCODING 187
SWIDTH 1000 0
DWIDTH 8 0
BBX 8 8 0 0
BITMAP 
1F
18
18
18
D8
78
38
00
ENDCHAR
STARTCHAR charBC
ENCODING 188
SWIDTH 1000 0
DWIDTH 8 0
BBX 8 8 0 0
BITMAP 
D8
7C
6C
6C
6C
00
00
00
ENDCHAR
STARTCHAR charBD
ENCODING 189
SWIDTH 1000 0
DWIDTH 8 0
BBX 8 8 0 0
BITMAP 
70
98
30
60
F8
00
00
00
ENDCHAR
STARTCHAR charBE
ENCODING 190
SWIDTH 1000 0
DWIDTH 8 0
BBX 8 8 0 0
BITMAP 
7E
B4
34
34
34
34
62
00
ENDCHAR
STARTCHAR charBF
ENCODING 191
SWIDTH 1000 0
DWIDTH 8 0
BBX 8 8 0 0
BITMAP 
00
00
00
00
00
00
00
00
ENDCHAR
STARTCHAR charC0
ENCODING 192
SWIDTH 1000 0
DWIDTH 8 0
BBX 8 8 0 0
BITMAP 
00
00
CC
D6
F6
D6
CC
00
ENDCHAR
STARTCHAR charC1
ENCODING 193
SWIDTH 1000 0
DWIDTH 8 0
BBX 8 8 0 0
BITMAP 
00
00
3C
06
3E
66
3E
00
ENDCHAR
STARTCHAR charC2
ENCODING 194
SWIDTH 1000 0
DWIDTH 8 0
BBX 8 8 0 0
BITMAP 
00
00
7C
60
7C
66
7C
00
ENDCHAR
STARTCHAR charC3
ENCODING 195
SWIDTH 1000 0
DWIDTH 8 0
BBX 8 8 0 0
BITMAP 
00
00
CC
CC
CC
CC
7E
06
ENDCHAR
STARTCHAR charC4
ENCODING 196
SWIDTH 1000 0
DWIDTH 8 0
BBX 8 8 0 0
BITMAP 
00
00
3C
6C
6C
6C
FE
00
ENDCHAR
STARTCHAR charC5
ENCODING 197
SWIDTH 1000 0
DWIDTH 8 0
BBX 8 8 0 0
BITMAP 
00
00
3C
66
7E
60
3C
00
ENDCHAR
STARTCHAR charC6
ENCODING 198
SWIDTH 1000 0
DWIDTH 8 0
BBX 8 8 0 0
BITMAP 
00
10
7C
D6
D6
D6
7C
10
ENDCHAR
STARTCHAR charC7
ENCODING 199
SWIDTH 1000 0
DWIDTH 8 0
BBX 8 8 0 0
BITMAP 
00
00
7E
60
60
60
60
00
ENDCHAR
STARTCHAR charC8
ENCODING 200
SWIDTH 1000 0
DWIDTH 8 0
BBX 8 8 0 0
BITMAP 
00
00
66
3C
18
3C
66
00
ENDCHAR
STARTCHAR charC9
ENCODING 201
SWIDTH 1000 0
DWIDTH 8 0
BBX 8 8 0 0
BITMAP 
00
00
66
66
66
6E
36
00
ENDCHAR
STARTCHAR charCA
ENCODING 202
SWIDTH 1000 0
DWIDTH 8 0
BBX 8 8 0 0
BITMAP 
3C
00
66
66
66
6E
36
00
ENDCHAR
STARTCHAR charCB
ENCODING 203
SWIDTH 1000 0
DWIDTH 8 0
BBX 8 8 0 0
BITMAP 
00
00
66
6C
78
6C
66
00
ENDCHAR
STARTCHAR charCC
ENCODING 204
SWIDTH 1000 0
DWIDTH 8 0
BBX 8 8 0 0
BITMAP 
00
00
1E
36
36
36
66
00
ENDCHAR
STARTCHAR charCD
ENCODING 205
SWIDTH 1000 0
DWIDTH 8 0
BBX 8 8 0 0
BITMAP 
00
00
C6
EE
D6
C6
C6
00
ENDCHAR
STARTCHAR charCE
ENCODING 206
SWIDTH 1000 0
DWIDTH 8 0
BBX 8 8 0 0
BITMAP 
00
00
66
66
7E
66
66
00
ENDCHAR
STARTCHAR charCF
ENCODING 207
SWIDTH 1000 0
DWIDTH 8 0
BBX 8 8 0 0
BITMAP 
00
00
3C
66
66
66
3C
00
ENDCHAR
STARTCHAR charD0
ENCODING 208
SWIDTH 1000 0
DWIDTH 8 0
BBX 8 8 0 0
BITMAP 
00
00
6C
76
66
66
66
00
ENDCHAR
STARTCHAR charD1
ENCODING 209
SWIDTH 1000 0
DWIDTH 8 0
BBX 8 8 0 0
BITMAP 
00
00
3E
66
3E
36
66
00
ENDCHAR
STARTCHAR charD2
ENCODING 210
SWIDTH 1000 0
DWIDTH 8 0
BBX 8 8 0 0
BITMAP 
00
00
7C
66
7C
60
60
00
ENDCHAR
STARTCHAR charD3
ENCODING 211
SWIDTH 1000 0
DWIDTH 8 0
BBX 8 8 0 0
BITMAP 
00
00
3C
66
60
66
3C
00
ENDCHAR
STARTCHAR charD4
ENCODING 212
SWIDTH 1000 0
DWIDTH 8 0
BBX 8 8 0 0
BITMAP 
00
00
7E
18
18
18
18
00
ENDCHAR
STARTCHAR charD5
ENCODING 213
SWIDTH 1000 0
DWIDTH 8 0
BBX 8 8 0 0
BITMAP 
00
00
66
66
66
3E
06
3C
ENDCHAR
STARTCHAR charD6
ENCODING 214
SWIDTH 1000 0
DWIDTH 8 0
BBX 8 8 0 0
BITMAP 
00
00
D6
D6
7C
D6
D6
00
ENDCHAR
STARTCHAR charD7
ENCODING 215
SWIDTH 1000 0
DWIDTH 8 0
BBX 8 8 0 0
BITMAP 
00
00
7C
66
7C
66
7C
00
ENDCHAR
STARTCHAR charD8
ENCODING 216
SWIDTH 1000 0
DWIDTH 8 0
BBX 8 8 0 0
BITMAP 
00
00
60
60
7C
66
7C
00
ENDCHAR
STARTCHAR charD9
ENCODING 217
SWIDTH 1000 0
DWIDTH 8 0
BBX 8 8 0 0
BITMAP 
00
00
C6
C6
F6
DE
F6
00
ENDCHAR
STARTCHAR charDA
ENCODING 218
SWIDTH 1000 0
DWIDTH 8 0
BBX 8 8 0 0
BITMAP 
00
00
3C
66
0C
66
3C
00
ENDCHAR
STARTCHAR charDB
ENCODING 219
SWIDTH 1000 0
DWIDTH 8 0
BBX 8 8 0 0
BITMAP 
00
00
D6
D6
D6
D6
FE
00
ENDCHAR
STARTCHAR charDC
ENCODING 220
SWIDTH 1000 0
DWIDTH 8 0
BBX 8 8 0 0
BITMAP 
00
00
7C
06
3E
06
7C
00
ENDCHAR
STARTCHAR charDD
ENCODING 221
SWIDTH 1000 0
DWIDTH 8 0
BBX 8 8 0 0
BITMAP 
00
00
D6
D6
D6
D6
FF
03
ENDCHAR
STARTCHAR charDE
ENCODING 222
SWIDTH 1000 0
DWIDTH 8 0
BBX 8 8 0 0
BITMAP 
00
00
66
66
3E
06
06
00
ENDCHAR
STARTCHAR charDF
ENCODING 223
SWIDTH 1000 0
DWIDTH 8 0
BBX 8 8 0 0
BITMAP 
00
00
E0
60
7C
66
7C
00
ENDCHAR
STARTCHAR charE0
ENCODING 224
SWIDTH 1000 0
DWIDTH 8 0
BBX 8 8 0 0
BITMAP 
CC
D6
D6
F6
D6
D6
CC
00
ENDCHAR
STARTCHAR charE1
ENCODING 225
SWIDTH 1000 0
DWIDTH 8 0
BBX 8 8 0 0
BITMAP 
18
3C
66
66
7E
66
66
00
ENDCHAR
STARTCHAR charE2
ENCODING 226
SWIDTH 1000 0
DWIDTH 8 0
BBX 8 8 0 0
BITMAP 
7E
60
60
7C
66
66
7C
00
ENDCHAR
STARTCHAR charE3
ENCODING 227
SWIDTH 1000 0
DWIDTH 8 0
BBX 8 8 0 0
BITMAP 
66
66
66
66
66
66
7F
03
ENDCHAR
STARTCHAR charE4
ENCODING 228
SWIDTH 1000 0
DWIDTH 8 0
BBX 8 8 0 0
BITMAP 
3C
6C
6C
6C
6C
6C
FE
C6
ENDCHAR
STARTCHAR charE5
ENCODING 229
SWIDTH 1000 0
DWIDTH 8 0
BBX 8 8 0 0
BITMAP 
7E
60
60
7C
60
60
7E
00
ENDCHAR
STARTCHAR charE6
ENCODING 230
SWIDTH 1000 0
DWIDTH 8 0
BBX 8 8 0 0
BITMAP 
18
7E
DB
DB
DB
7E
18
00
ENDCHAR
STARTCHAR charE7
ENCODING 231
SWIDTH 1000 0
DWIDTH 8 0
BBX 8 8 0 0
BITMAP 
7E
60
60
60
60
60
60
00
ENDCHAR
STARTCHAR charE8
ENCODING 232
SWIDTH 1000 0
DWIDTH 8 0
BBX 8 8 0 0
BITMAP 
66
66
3C
18
3C
66
66
00
ENDCHAR
STARTCHAR charE9
ENCODING 233
SWIDTH 1000 0
DWIDTH 8 0
BBX 8 8 0 0
BITMAP 
66
66
6E
7E
76
66
66
00
ENDCHAR
STARTCHAR charEA
ENCODING 234
SWIDTH 1000 0
DWIDTH 8 0
BBX 8 8 0 0
BITMAP 
3C
00
66
6E
7E
76
66
00
ENDCHAR
STARTCHAR charEB
ENCODING 235
SWIDTH 1000 0
DWIDTH 8 0
BBX 8 8 0 0
BITMAP 
66
66
6C
78
6C
66
66
00
ENDCHAR
STARTCHAR charEC
ENCODING 236
SWIDTH 1000 0
DWIDTH 8 0
BBX 8 8 0 0
BITMAP 
3E
66
66
66
66
66
C6
00
ENDCHAR
STARTCHAR charED
ENCODING 237
SWIDTH 1000 0
DWIDTH 8 0
BBX 8 8 0 0
BITMAP 
C6
EE
FE
D6
C6
C6
C6
00
ENDCHAR
STARTCHAR charEE
ENCODING 238
SWIDTH 1000 0
DWIDTH 8 0
BBX 8 8 0 0
BITMAP 
66
66
66
7E
66
66
66
00
ENDCHAR
STARTCHAR charEF
ENCODING 239
SWIDTH 1000 0
DWIDTH 8 0
BBX 8 8 0 0
BITMAP 
3C
66
66
66
66
66
3C
00
ENDCHAR
STARTCHAR charF0
ENCODING 240
SWIDTH 1000 0
DWIDTH 8 0
BBX 8 8 0 0
BITMAP 
7E
66
66
66
66
66
66
00
ENDCHAR
STARTCHAR charF1
ENCODING 241
SWIDTH 1000 0
DWIDTH 8 0
BBX 8 8 0 0
BITMAP 
3E
66
66
3E
36
66
66
00
ENDCHAR
STARTCHAR charF2
ENCODING 242
SWIDTH 1000 0
DWIDTH 8 0
BBX 8 8 0 0
BITMAP 
7C
66
66
66
7C
60
60
00
ENDCHAR
STARTCHAR charF3
ENCODING 243
SWIDTH 1000 0
DWIDTH 8 0
BBX 8 8 0 0
BITMAP 
3C
66
60
60
60
66
3C
00
ENDCHAR
STARTCHAR charF4
ENCODING 244
SWIDTH 1000 0
DWIDTH 8 0
BBX 8 8 0 0
BITMAP 
7E
18
18
18
18
18
18
00
ENDCHAR
STARTCHAR charF5
ENCODING 245
SWIDTH 1000 0
DWIDTH 8 0
BBX 8 8 0 0
BITMAP 
66
66
66
3E
06
66
3C
00
ENDCHAR
STARTCHAR charF6
ENCODING 246
SWIDTH 1000 0
DWIDTH 8 0
BBX 8 8 0 0
BITMAP 
D6
D6
D6
7C
D6
D6
D6
00
ENDCHAR
STARTCHAR charF7
ENCODING 247
SWIDTH 1000 0
DWIDTH 8 0
BBX 8 8 0 0
BITMAP 
7C
66
66
7C
66
66
7C
00
ENDCHAR
STARTCHAR charF8
ENCODING 248
SWIDTH 1000 0
DWIDTH 8 0
BBX 8 8 0 0
BITMAP 
60
60
60
7C
66
66
7C
00
ENDCHAR
STARTCHAR charF9
ENCODING 249
SWIDTH 1000 0
DWIDTH 8 0
BBX 8 8 0 0
BITMAP 
C6
C6
C6
F6
CE
CE
F6
00
ENDCHAR
STARTCHAR charFA
ENCODING 250
SWIDTH 1000 0
DWIDTH 8 0
BBX 8 8 0 0
BITMAP 
3C
66
06
1C
06
66
3C
00
ENDCHAR
STARTCHAR charFB
ENCODING 251
SWIDTH 1000 0
DWIDTH 8 0
BBX 8 8 0 0
BITMAP 
D6
D6
D6
D6
D6
D6
FE
00
ENDCHAR
STARTCHAR charFC
ENCODING 252
SWIDTH 1000 0
DWIDTH 8 0
BBX 8 8 0 0
BITMAP 
7C
06
06
3E
06
06
7C
00
ENDCHAR
STARTCHAR charFD
ENCODING 253
SWIDTH 1000 0
DWIDTH 8 0
BBX 8 8 0 0
BITMAP 
D6
D6
D6
D6
D6
D6
FF
03
ENDCHAR
STARTCHAR charFE
ENCODING 254
SWIDTH 1000 0
DWIDTH 8 0
BBX 8 8 0 0
BITMAP 
66
66
66
3E
06
06
06
00
ENDCHAR
STARTCHAR charFF
ENCODING 255
SWIDTH 1000 0
DWIDTH 8 0
BBX 8 8 0 0
BITMAP 
FF
FF
FF
FF
FF
FF
FF
FF
ENDCHAR
ENDFONT
